<svg xmlns="http://www.w3.org/2000/svg" width="70" height="70" fill="none"><path d="M45.195 40.832c-2.124 7.93-12.431 7.958-15.126 10.087-1.064-3.136-10.18-8.37-8.056-16.299 2.125-7.93 9.678-15.36 16.08-13.644 6.401 1.715 9.227 11.927 7.102 19.856Z" stroke="#ffffff" stroke-width="2"/><path d="M43.888 22.528c.858-3.2-.783-7.456-3.984-8.314-3.2-.858-6.75 2.008-7.607 5.209" stroke="#ffffff" stroke-width="2"/><path d="m60.138 26.883-21.563-5.778c6.762 1.812 12.883 20.016 17.421 21.232 5.674 1.52 9.9-1.488 10.841-5 .942-3.513-1.38-9.03-6.7-10.455ZM16.047 15.069l21.562 5.777c-6.761-1.812-21.164 10.893-25.703 9.677-5.673-1.52-7.829-6.239-6.888-9.751.941-3.512 5.71-7.129 11.03-5.703Z" stroke="#ffffff" stroke-width="2" stroke-linecap="round" stroke-linejoin="round"/><path d="M27.104 25.278c1.987-.33 6.83-.758 10.307.174 3.477.931 6.813 3.55 8.046 4.744M23.973 31.169c2.223-.095 7.47.448 11.497 1.527 4.026 1.079 8.248 3.073 9.754 4.167M22.55 36.481c2.223-.094 6.47 2.251 10.495 3.33 4.027 1.079 9.25 1.27 10.755 2.364M35.523 15.11l-1.863-4.64M44.216 17.44l3.933-3.087" stroke="#ffffff" stroke-width="2" stroke-linecap="round" stroke-linejoin="round"/><path d="M28.83 57c-.554 3.39-.118 6.99 1.024 10.5" stroke="#ffffff" stroke-width="2" stroke-linecap="round" stroke-linejoin="round" stroke-dasharray="5 5"/></svg>