<svg width="70" height="70" fill="none" xmlns="http://www.w3.org/2000/svg"><path d="M6.773 31.185v3.85c0 8.916 5.343 13.453 11.933 13.453s11.933-4.537 11.933-13.453v-3.85" stroke="#202020" stroke-width="2" stroke-linecap="round" stroke-linejoin="round"/><path d="M31.58 36.706h.538c1.04 0 1.882.843 1.882 1.882v0c0 1.04-.843 1.883-1.882 1.883h-1.883M6.303 36.706h-.538c-1.04 0-1.883.843-1.883 1.882v0c0 1.04.843 1.883 1.883 1.883h.94" stroke="#202020" stroke-width="2" stroke-linecap="round" stroke-linejoin="round"/><path d="M31 27c0-6.505-4.522-11-10.856-11h-3.058C10.752 16 6.382 19.098 6 26.532" stroke="#202020" stroke-width="2" stroke-linecap="round"/><path d="M5 28.754a2.028 2.028 0 0 0 2.222 2.014C10.182 30.473 15.405 30 18.5 30c3.17 0 8.575.496 11.492.79A1.824 1.824 0 0 0 32 28.977c0-.86-.602-1.599-1.448-1.749C28.111 26.796 23.007 26 18.5 26c-4.342 0-9.237.492-11.772.786-.993.115-1.728.968-1.728 1.968Z" stroke="#202020" stroke-width="2" stroke-linejoin="round"/><path d="M13 48v3M15 54v3M24 48v3M22 54v3M34 63v-6.798C34 53.329 30.604 51 26.414 51H24M2 63v-6.798C2 53.329 5.396 51 9.586 51h3.144M24 51c0 1.657-2.462 3-5.5 3S13 52.657 13 51M41.882 21.938v5.312c0 8.07 4.675 12.176 10.442 12.176 5.766 0 10.44-4.106 10.44-12.176v-3.485" stroke="#202020" stroke-width="2" stroke-linecap="round" stroke-linejoin="round"/><path d="M63.75 28.5h.5c.966 0 1.75.784 1.75 1.75v0A1.75 1.75 0 0 1 64.25 32H62.5M41.125 28.5h-.5a1.75 1.75 0 0 0-1.75 1.75v0c0 .966.783 1.75 1.75 1.75h1.313M48 39v3M57 39v3M65 52v-5.665C65 43.941 62.444 42 59.292 42h-1.516M40 52v-5.665C40 43.941 42.556 42 45.708 42h1.516M57 42c0 1.105-2.015 2-4.5 2s-4.5-.895-4.5-2M48 18c1.232 0 3.02.195 6.04 3.366 3.019 3.171 7.076 3.114 8.46 2.634M48 18c0 .558-1.272 2.131-2.308 2.667-1.035.535-3.045.721-3.692.833" stroke="#202020" stroke-width="2" stroke-linecap="round" stroke-linejoin="round"/><path d="M40.383 28.775c-1.097-2.048-1.366-4.217-1.366-7.2 0-7.321-.688-8.998 6.759-8.998C54.764 8.077 66 13.872 66 21.576c0 2.536-.599 5.375-1.742 7.424" stroke="#202020" stroke-width="2"/><path d="M16 42c.462.664 1.408 1 2.5 1s2.038-.336 2.5-1" stroke="#202020" stroke-width="2" stroke-linecap="round" stroke-linejoin="round"/><path d="M21 35c.37-.664 1.126-1 2-1 .874 0 1.63.336 2 1M12 35c.37-.664 1.126-1 2-1 .874 0 1.63.336 2 1" stroke="#202020" stroke-width="2" stroke-linecap="round"/><path d="M49 34c.462.664 1.408 1 2.5 1s2.038-.336 2.5-1M48 27v2M56 27v2" stroke="#202020" stroke-width="2" stroke-linecap="round" stroke-linejoin="round"/></svg>