<svg xmlns="http://www.w3.org/2000/svg" width="70" height="70" fill="none"><path fill-rule="evenodd" clip-rule="evenodd" d="M38.74 5.572a1 1 0 0 1 .433.705c.485 3.888-.873 8.893-2.974 13.085-1.06 2.112-2.332 4.068-3.709 5.618-1.363 1.534-2.897 2.748-4.497 3.247-5.287 1.648-9.326.48-12.22-.358l-.706-.202a1 1 0 0 1-.677-.643c-.525-1.553-1.156-4.246-1.18-6.998-.025-2.711.539-5.747 2.697-7.665 2.475-2.2 5.418-3.218 8.965-4.046 1.34-.312 2.744-.595 4.252-.897 2.57-.517 5.44-1.093 8.8-1.984a1 1 0 0 1 .816.138Zm-13.414 4.69c-3.456.807-5.997 1.733-8.09 3.594-1.497 1.33-2.05 3.616-2.027 6.152.02 2.224.483 4.436.918 5.882l.182.052c2.874.828 6.39 1.84 11.088.376 1.105-.345 2.347-1.258 3.598-2.667 1.237-1.392 2.417-3.194 3.416-5.186 1.792-3.574 2.924-7.601 2.858-10.796-2.922.738-5.558 1.269-7.88 1.737-1.486.299-2.843.572-4.063.857Z" fill="#ffffff"/><path fill-rule="evenodd" clip-rule="evenodd" d="M38.74 5.572a1 1 0 0 1 .433.705c.485 3.888-.873 8.893-2.974 13.085-1.06 2.112-2.332 4.068-3.709 5.618-1.363 1.534-2.897 2.748-4.497 3.247-5.287 1.648-9.326.48-12.22-.358l-.706-.202a1 1 0 0 1-.677-.643c-.525-1.553-1.156-4.246-1.18-6.998-.025-2.711.539-5.747 2.697-7.665 2.475-2.2 5.418-3.218 8.965-4.046 1.34-.312 2.744-.595 4.252-.897 2.57-.517 5.44-1.093 8.8-1.984a1 1 0 0 1 .816.138Zm-13.414 4.69c-3.456.807-5.997 1.733-8.09 3.594-1.497 1.33-2.05 3.616-2.027 6.152.02 2.224.483 4.436.918 5.882l.182.052c2.874.828 6.39 1.84 11.088.376 1.105-.345 2.347-1.258 3.598-2.667 1.237-1.392 2.417-3.194 3.416-5.186 1.792-3.574 2.924-7.601 2.858-10.796-2.922.738-5.558 1.269-7.88 1.737-1.486.299-2.843.572-4.063.857ZM57.74 52.12a1 1 0 0 1-.827.021c-3.61-1.523-7.265-5.202-9.844-9.118-1.3-1.974-2.358-4.053-3.012-6.02-.647-1.948-.931-3.884-.563-5.519 1.216-5.403 4.247-8.316 6.42-10.403l.528-.51a1 1 0 0 1 .895-.266c1.607.322 4.255 1.122 6.65 2.477 2.361 1.334 4.708 3.34 5.29 6.168.668 3.244.078 6.302-.978 9.787-.4 1.317-.858 2.674-1.349 4.131-.838 2.484-1.773 5.257-2.683 8.614a1 1 0 0 1-.527.637Zm2.645-13.963c1.03-3.396 1.498-6.06.933-8.803-.403-1.962-2.107-3.583-4.315-4.831-1.936-1.095-4.082-1.8-5.552-2.146l-.136.131c-2.154 2.075-4.79 4.615-5.87 9.415-.254 1.129-.084 2.66.51 4.449.588 1.768 1.559 3.69 2.784 5.551 2.2 3.34 5.12 6.333 7.92 7.873.823-2.898 1.681-5.447 2.437-7.692.483-1.437.925-2.748 1.289-3.947ZM7.25 46.464a1 1 0 0 1 .394-.727c3.125-2.365 8.138-3.691 12.819-3.967 2.359-.139 4.689-.015 6.72.403 2.01.413 3.828 1.135 5.06 2.271 4.071 3.755 5.078 7.836 5.8 10.76.06.247.12.485.178.714a1 1 0 0 1-.218.907c-1.083 1.232-3.1 3.125-5.47 4.522-2.336 1.377-5.247 2.407-7.987 1.497-3.143-1.044-5.496-3.083-7.986-5.741a142.4 142.4 0 0 1-2.904-3.234c-1.732-1.967-3.666-4.164-6.118-6.63a1 1 0 0 1-.288-.775Zm10.77 9.272c2.425 2.589 4.498 4.327 7.156 5.21 1.9.63 4.156-.034 6.341-1.322 1.916-1.13 3.6-2.636 4.634-3.735l-.045-.184c-.72-2.903-1.602-6.455-5.219-9.79-.85-.785-2.262-1.404-4.107-1.783-1.825-.375-3.976-.496-6.2-.365-3.991.235-8.045 1.268-10.778 2.922 2.099 2.162 3.877 4.18 5.443 5.957a141.5 141.5 0 0 0 2.774 3.09Z" fill="#ffffff"/><path d="M30.078 14.587a.967.967 0 0 0-1.203-.717A22.002 22.002 0 0 0 13.55 39.894a.967.967 0 0 0 1.21.704c.534-.148.844-.7.723-1.239a19.996 19.996 0 0 1 13.861-23.54c.53-.156.863-.694.733-1.232ZM54.55 42.664a.967.967 0 0 0 1.277-.575A22 22 0 0 0 43.28 14.618a.967.967 0 0 0-1.271.588c-.185.522.09 1.092.601 1.303a19.997 19.997 0 0 1 11.348 24.848c-.176.525.075 1.105.59 1.307ZM19.226 48.86a.967.967 0 0 0-.075 1.399 22.001 22.001 0 0 0 30.166 1.445.967.967 0 0 0 .06-1.4c-.379-.403-1.011-.42-1.433-.062a19.997 19.997 0 0 1-27.286-1.307c-.385-.397-1.017-.44-1.432-.075Z" fill="#ffffff"/></svg>