<svg xmlns="http://www.w3.org/2000/svg" width="70" height="70" fill="none"><path d="M48.322 20c.495.664 1.508 1 2.678 1s2.183-.336 2.678-1" stroke="#fff" stroke-width="2" stroke-linecap="round"/><path d="M53 16v.5M51 25a7 7 0 1 0 0-14 7 7 0 0 0 0 14Z" stroke="#fff" stroke-width="2" stroke-linecap="round" stroke-linejoin="round"/><path d="M48 30h-7m13.5 0H62a2 2 0 0 0 2-2V8a2 2 0 0 0-2-2H40a2 2 0 0 0-2 2v14.5" stroke="#fff" stroke-width="2" stroke-linecap="round"/><path d="m54 30-3 3-3-3M49 16v.5" stroke="#fff
" stroke-width="2" stroke-linecap="round" stroke-linejoin="round"/><path d="M12 61a5 5 0 0 1-5-5V32c0-8.284 6.716-15 15-15h4c8.284 0 15 6.716 15 15v24a5 5 0 0 1-5 5" stroke="#fff" stroke-width="2"/><path d="M13 29v7.783C13 45.543 17.925 50 24 50s11-4.458 11-13.217V28" stroke="#fff" stroke-width="2" stroke-linecap="round"/><path d="M20 44c.74.664 2.253 1 4 1 1.747 0 3.26-.336 4-1" stroke="#fff" stroke-width="2" stroke-linecap="round"/><path d="M21 37v2M27 37v2" stroke="#fff" stroke-width="2" stroke-linecap="round" stroke-linejoin="round"/><path d="M19 28a3 3 0 0 1-3 3c-1.657 0-3-.343-3-2M35 28c0 3.314-3.582 6-8 6s-8-2.686-8-6" stroke="#fff" stroke-width="2" stroke-linecap="round"/><path d="M12 36v0a2 2 0 0 0-2 2v0a2 2 0 0 0 2 2v0M36 36v0a2 2 0 0 1 2 2v0a2 2 0 0 1-2 2v0" stroke="#fff" stroke-width="2" stroke-linecap="round" stroke-linejoin="round"/><path d="M36 63v-3a6 6 0 0 0-6-6H18a6 6 0 0 0-6 6v3" stroke="#fff" stroke-width="2" stroke-linecap="round"/><path stroke="#fff" stroke-width="2" d="M21 50h7v4h-7z"/></svg>