<svg xmlns="http://www.w3.org/2000/svg" width="70" height="70" fill="none"><path d="M49 40v18a2 2 0 0 1-2 2H27a8 8 0 0 1-8-8V40" stroke="#fff" stroke-width="2"/><path d="m19.667 54.258 4.734.247.246 4.763M16 22h-3" stroke="#fff" stroke-width="2" stroke-linecap="round" stroke-linejoin="round"/><path d="M49.51 18.085V13a2 2 0 0 0-2-2H19a2 2 0 0 0-2 2v5.085" stroke="#fff" stroke-width="2"/><path d="M19 44h-8a2 2 0 0 1-2-2V20a2 2 0 0 1 2-2h46a2 2 0 0 1 2 2v22a2 2 0 0 1-2 2h-8" stroke="#fff" stroke-width="2"/><rect width="42.443" height="3.634" rx="1.817" transform="matrix(1 0 0 -1 12.612 40.634)" stroke="#fff" stroke-width="2"/><path d="M52.5 52C59.404 52 65 46.404 65 39.5S59.404 27 52.5 27 40 32.596 40 39.5 45.596 52 52.5 52Z" fill="#202020" stroke="#fff" stroke-width="2" stroke-linecap="round" stroke-linejoin="round"/><path d="M59.421 39.947a6.263 6.263 0 0 1-6.263 6.263M46 39.947a7.158 7.158 0 0 1 7.158-7.158" stroke="#fff" stroke-width="2" stroke-linecap="round"/><path d="m54.053 43.526-2.685 2.237L54.053 48M51.368 35.474l2.685-2.237L51.368 31" stroke="#fff" stroke-width="2" stroke-linecap="round" stroke-linejoin="round"/></svg>