<svg xmlns="http://www.w3.org/2000/svg" width="70" height="70" fill="none"><path d="M27.57 21.275c5.121-5.12.87-15.265-8.454-13.322-10.88 3.109-2.332 6.994-11.657 15.93" stroke="#ffffff" stroke-width="2" stroke-linecap="round"/><path d="M35.5 37v-1 1Zm-1-1v1-1Zm-14.896 1.048-.76-.651.76.65ZM21.882 36v1-1Zm-2.755 1.604-.76-.65.76.65Zm9.271-10.816.76.65-.76-.65ZM30.453 32v-1 1Zm4.047 0v-1 1Zm1-1v1-1Zm3.5 4h1-1Zm0-2h-1 1Zm-2-2v-1 1Zm1 2v2h2v-2h-2Zm-2.5-1H37v-2h-1.5v2Zm-1-1h-4.047v2H34.5v-2Zm-5.565-3.302.223-.26-1.519-1.301-.223.26 1.519 1.301Zm.014-5.691-7.06-7.061-1.415 1.414 7.06 7.06 1.415-1.413Zm-12.493-7.27L5.64 24.009l1.301 1.518 10.817-9.271-1.302-1.519ZM5.414 29.874l8.607 8.606 1.414-1.414-8.606-8.606-1.415 1.414Zm14.472 8.381.477-.557-1.518-1.301-.477.556 1.518 1.302ZM21.882 37H34.5v-2H21.882v2ZM37 36h-1.5v2H37v-2Zm-3 .5a1.5 1.5 0 0 0 1.5 1.5v-2a.5.5 0 0 1 .5.5h-2Zm.5.5a.5.5 0 0 1-.5-.5h2a1.5 1.5 0 0 0-1.5-1.5v2Zm-14.137.698A2 2 0 0 1 21.882 37v-2a4 4 0 0 0-3.037 1.397l1.518 1.301Zm-6.342.782a4 4 0 0 0 5.865-.225l-1.518-1.302a2 2 0 0 1-2.933.113L14.02 38.48ZM5.64 24.01a4 4 0 0 0-.226 5.865L6.83 28.46a2 2 0 0 1 .112-2.933L5.64 24.01Zm16.248-9.063a4 4 0 0 0-5.432-.209l1.302 1.519a2 2 0 0 1 2.716.104l1.414-1.414Zm7.27 12.492a4 4 0 0 0-.209-5.431l-1.414 1.414a2 2 0 0 1 .104 2.716l1.519 1.301ZM30.453 31c-1.709 0-2.63-2.004-1.518-3.302l-1.519-1.301C25.192 28.992 27.036 33 30.453 33v-2Zm3.547.5a.5.5 0 0 1 .5-.5v2a1.5 1.5 0 0 0 1.5-1.5h-2Zm1.5-1.5a1.5 1.5 0 0 0-1.5 1.5h2a.5.5 0 0 1-.5.5v-2Zm2.5 5a1 1 0 0 1-1 1v2a3 3 0 0 0 3-3h-2Zm2-2a3 3 0 0 0-3-3v2a1 1 0 0 1 1 1h2Z" fill="#ffffff"/><path d="m16.973 15.882 11 11" stroke="#ffffff" stroke-width="2" stroke-linecap="round"/><path d="M47.2 58.279a21.277 21.277 0 0 1 3.319-16.877" stroke="#ffffff" stroke-width="2" stroke-linecap="round" stroke-linejoin="round"/><path d="M42.476 39.662c-1.597 4.38 2.946 9.943 5.12 11.969 2.866-.643 6.853-1.254 10.63-5.119 3.776-3.865 3.377-16.61-.65-22.265-7.655 7.184-13.104 9.938-15.1 15.415Z" stroke="#ffffff" stroke-width="2" stroke-linecap="round" stroke-linejoin="round"/><path d="M57 66c0-3.314-4.253-7-9.5-7S38 62.686 38 66" stroke="#ffffff" stroke-width="2" stroke-linecap="round"/></svg>