<svg width="70" height="70" fill="none" xmlns="http://www.w3.org/2000/svg"><path d="M45.322 25c.495.664 1.508 1 2.678 1s2.183-.336 2.678-1" stroke="#202020" stroke-width="2" stroke-linecap="round"/><path d="M50 21v.5M48 30a7 7 0 1 0 0-14 7 7 0 0 0 0 14Z" stroke="#202020" stroke-width="2" stroke-linecap="round" stroke-linejoin="round"/><path d="M45 35h-6m12.5 0H59a2 2 0 0 0 2-2V13a2 2 0 0 0-2-2H37a2 2 0 0 0-2 2v15" stroke="#202020" stroke-width="2" stroke-linecap="round"/><path d="m51 35-3 3-3-3M46 21v.5" stroke="#202020" stroke-width="2" stroke-linecap="round" stroke-linejoin="round"/><path d="M20.851 44.074c.569.762 1.732 1.148 3.075 1.148 1.343 0 2.506-.386 3.074-1.148" stroke="#202020" stroke-width="2" stroke-linecap="round"/><path d="M26.222 39.481v.575M23.926 49.815a8.037 8.037 0 1 0 0-16.074 8.037 8.037 0 0 0 0 16.074Z" stroke="#202020" stroke-width="2" stroke-linecap="round" stroke-linejoin="round"/><path d="M20.482 55.556H11a2 2 0 0 1-2-2V30a2 2 0 0 1 2-2h25.852a2 2 0 0 1 2 2v23.556a2 2 0 0 1-2 2h-8.908" stroke="#202020" stroke-width="2" stroke-linecap="round"/><path d="M27.37 55.556 23.926 59l-3.444-3.444M21.63 39.481v.575" stroke="#202020" stroke-width="2" stroke-linecap="round" stroke-linejoin="round"/></svg>