<svg width="70" height="70" fill="none" xmlns="http://www.w3.org/2000/svg"><path d="M53.102 21.899c0 11.027 4.068 28.136 4.068 31.812 0 3.675-4.912 5.25-8.112 5.25M17.65 21.9c-.579 12.602-6.258 29.711-3.94 33.387 2.318 3.676 4.333 3.676 7.533 3.676" stroke="#202020" stroke-width="2"/><path d="M22.359 27.69v4.381c0 10.146 5.704 15.308 12.74 15.308 7.037 0 12.74-5.162 12.74-15.308V27.69" stroke="#202020" stroke-width="2" stroke-linecap="round"/><path d="M30.466 41.529c.857.768 2.61 1.158 4.633 1.158 2.024 0 3.777-.39 4.633-1.158" stroke="#202020" stroke-width="2" stroke-linecap="round"/><path d="M30.526 33.481v2.316M31.1 47.06v3.295M39.672 33.481v2.316M39.887 47.06v3.295" stroke="#202020" stroke-width="2" stroke-linecap="round" stroke-linejoin="round"/><path d="M29.253 21.899c1.297 1.884.159 2.464-1.997 4.293-2.156 1.83-3.295 2.746-5.491.55M29.856 21.899c.471 2.784 3.208 5.617 7.288 7.135 3.809 1.416 7.801 1.322 10.518 0M48.998 62.437v-4.993a6.59 6.59 0 0 0-6.59-6.59h-2.521M21.2 62.437v-4.993a6.59 6.59 0 0 1 6.59-6.59h3.31" stroke="#202020" stroke-width="2" stroke-linecap="round"/><path d="M17.162 30.006C13.937 29.027 12 27.772 12 26.403c0-3.127 10.112-5.662 22.585-5.662 12.474 0 22.585 2.535 22.585 5.662 0 1.139-1.34 2.2-3.648 3.087" stroke="#202020" stroke-width="2"/><path d="M47.905 11.475C47.905 9.555 41.94 8 34.585 8s-13.32 1.556-13.32 3.475M13.158 24.215l6.633-5.852 1.474-6.31M56.012 24.215l-6.633-5.852-1.474-6.31" stroke="#202020" stroke-width="2" stroke-linecap="round"/><path d="M39.887 50.355c0 1.82-1.967 3.295-4.393 3.295-2.427 0-4.394-1.475-4.394-3.295" stroke="#202020" stroke-width="2"/></svg>