<svg xmlns="http://www.w3.org/2000/svg" width="70" height="70" fill="none"><path d="M34.827 21.442c1.379-3.09 4.003-5.11 6.978-6.103" stroke="#ffffff" stroke-width="2" stroke-linecap="round" stroke-linejoin="round"/><path d="M38.868 11.972c-2.116 1.39-1.943 5.285-1.653 6.873 1.456.65 3.39 1.677 6.288 1.22 2.898-.458 6.86-6.136 6.94-9.905-5.663.645-8.929.075-11.575 1.812ZM28.368 12.769c2.436 1.461 5.421 4.71 5.874 6.82C34.723 21.829 35 23 35 25" stroke="#ffffff" stroke-width="2" stroke-linecap="round" stroke-linejoin="round"/><path d="M33.098 10.335c1.784 1.797.81 5.572.198 7.066-1.56.334-3.664.94-6.405-.106-2.74-1.047-5.443-7.42-4.744-11.125 5.408 1.8 8.721 1.919 10.95 4.165ZM35 64c10.73 0 19.429-8.699 19.429-19.429 0-10.73-8.699-19.428-19.429-19.428-10.73 0-19.429 8.698-19.429 19.428S24.27 64 35 64Z" stroke="#ffffff" stroke-width="2" stroke-linecap="round" stroke-linejoin="round"/><path d="M20.143 32.456c.994 1.554 3.835 4.196 7.244 2.331 4.262-2.33 3.836-6.216 8.097-4.273 4.262 1.942 4.688 3.496 8.097 1.942 1.642-.748 1.563-3.237 1.705-3.885M52.143 52.471c-1.466.128-4.237-.23-3.597-2.691.799-3.076-1.999-5.767-3.997-6.536-1.999-.769-3.198 3.076-3.597 4.998-.4 1.922-1.999 8.458-3.997 8.843-1.998.384-2.798-1.154-3.597-4.23-.8-3.075-4.796-5.382-5.196-8.842-.4-3.46 5.595-1.922 8.793-3.076.8-.256 2.718-1 3.997-1.922 1.598-1.153 3.997-3.845 6.395-1.538 1.918 1.846 3.996 1.794 4.796 1.538M17.857 37.714c1.91.697 4.87 2.213 5.54 4.286 1.108 3.428-3.456 6.585-2.413 8.676.833 1.672-.348 3.484-1.043 4.181M61.512 50c0 3.011-.59 8.282 6.488 8.282" stroke="#ffffff" stroke-width="2" stroke-linecap="round"/><path d="M61.488 50v.19c0 2.943.59 8.092-6.488 8.092" stroke="#ffffff" stroke-width="2" stroke-linecap="round" stroke-linejoin="round"/><path d="M61.488 66.718c0-3.442.59-8.436-6.488-8.436" stroke="#ffffff" stroke-width="2" stroke-linecap="round"/><path d="M61.512 66.718c0-3.442-.59-8.436 6.488-8.436M9.514 16c0 3.818-.68 10.5 7.486 10.5" stroke="#ffffff" stroke-width="2" stroke-linecap="round"/><path d="M9.486 16v.242c0 3.73.68 10.258-7.486 10.258" stroke="#ffffff" stroke-width="2" stroke-linecap="round" stroke-linejoin="round"/><path d="M9.486 38.5c0-4.364.68-12-7.486-12" stroke="#ffffff" stroke-width="2" stroke-linecap="round"/><path d="M9.514 38.5c0-4.364-.68-12 7.486-12" stroke="#ffffff" stroke-width="2" stroke-linecap="round"/></svg>