<svg width="70" height="70" fill="none" xmlns="http://www.w3.org/2000/svg"><path d="M63 42.806V60a2 2 0 0 1-2 2H30a2 2 0 0 1-2-2V42.806m35 0H28m35 0c0-9.287-7.574-14.037-12.101-15.539-.565-.187-1.178-.066-1.662.28L28 42.808" stroke="#202020" stroke-width="2" stroke-linecap="round" stroke-linejoin="round"/><circle cx="53.5" cy="53.5" r="4.5" stroke="#202020" stroke-width="2"/><circle cx="40.5" cy="49.5" r="2.5" stroke="#202020" stroke-width="2"/><circle cx="34" cy="56" r="2" stroke="#202020" stroke-width="2"/><path d="M8.159 19.348H29c1.105 0 2.01-.903 1.766-1.98-.8-3.54-3.835-8.227-11.875-8.227-7.942 0-11.351 4.573-12.465 8.096-.351 1.11.568 2.11 1.733 2.11ZM7.953 19.348v7.066c0 4.711 3.594 13.584 10.156 14.526 6.563.942 10.938-9.422 10.938-14.526v-7.066" stroke="#202020" stroke-width="2" stroke-linecap="round"/><path d="M18.5 6v2.748m-6.25 18.844c.13 1.44.86 4.633 2.734 5.889" stroke="#202020" stroke-width="2" stroke-linecap="round"/><circle cx="13" cy="14" r="1" fill="#202020"/><circle cx="17" cy="16" r="1" fill="#202020"/><circle cx="21" cy="13" r="1" fill="#202020"/><circle cx="25" cy="16" r="1" fill="#202020"/><circle cx="17" cy="36" r="1" fill="#202020"/></svg>