<svg width="70" height="70" fill="none" xmlns="http://www.w3.org/2000/svg"><path d="m34.904 33.233.078.997h.007l.008-.001-.093-.996Zm7.686-11.528.4-.916-.4.916Zm.9.377-.356.934.357-.934Zm-.559-6.538-.51-.86.51.86Zm-.823.524-.55-.835.55.835Zm-6.869-2.188.997-.086-.997.086Zm-.517-6.042-.996.085.996-.085ZM11.64 35.224l.077.997h.008l.008-.001-.093-.996Zm.015-.001.085.996-.085-.996Zm6.042-.517.085.996-.085-.996Zm2.189-6.869-.835.55.835-.55Zm-.525-.823.86-.511-.86.51Zm6.538-.56-.934-.357.934.357Zm-.377.9.917.4-.917-.4Zm3.325 6.397.085.997-.085-.997Zm6.041-.517-.085-.996.085.996Zm.826-2.078a1 1 0 0 1-.903 1.081l.186 1.992a3 3 0 0 0 2.71-3.243l-1.993.17Zm-.517-6.041.517 6.041 1.993-.17-.517-6.042-1.993.17Zm4.35-5.164a4.774 4.774 0 0 0-4.35 5.163l1.993-.17c-.13-1.526 1-2.87 2.527-3l-.17-1.993Zm3.443.837c-.91-.397-2.123-.95-3.443-.837l.17 1.992c.725-.062 1.46.236 2.473.678l.8-1.832Zm.858.36a20.089 20.089 0 0 1-.858-.36l-.8 1.833c.297.13.619.27.944.395l.714-1.868Zm1.166.163a2.63 2.63 0 0 1-1.166-.163l-.714 1.868a4.628 4.628 0 0 0 2.05.287l-.17-1.992Zm2.408-2.859a2.642 2.642 0 0 1-2.408 2.859l.17 1.992a4.642 4.642 0 0 0 4.23-5.021l-1.992.17Zm-2.858-2.407a2.642 2.642 0 0 1 2.858 2.407l1.992-.17a4.642 4.642 0 0 0-5.02-4.23l.17 1.993Zm-1.122.359c.33-.197.71-.324 1.122-.36l-.17-1.992a4.628 4.628 0 0 0-1.974.632l1.022 1.72Zm-.784.5c.278-.184.531-.35.784-.5l-1.022-1.72c-.299.178-.592.37-.862.55l1.1 1.67Zm-3.252 1.41c1.32-.113 2.422-.864 3.252-1.41l-1.1-1.67c-.924.607-1.597 1.026-2.322 1.088l.17 1.992Zm-5.163-4.349a4.774 4.774 0 0 0 5.163 4.35l-.17-1.993c-1.526.13-2.87-1.001-3-2.527l-1.993.17Zm-.517-6.042.517 6.042 1.993-.17-.517-6.043-1.993.171Zm-1.082-.911a1 1 0 0 1 1.082.911l1.992-.17a3 3 0 0 0-3.244-2.734l.17 1.993ZM9.411 9l23.233-1.99-.17-1.992L9.24 7.008 9.41 9ZM8.5 10.082a1 1 0 0 1 .91-1.081l-.17-1.993a3 3 0 0 0-2.733 3.245l1.993-.17Zm1.988 23.234L8.5 10.082l-1.993.17 1.989 23.234 1.992-.17Zm1.074.911a1 1 0 0 1-1.074-.911l-1.992.17a3 3 0 0 0 3.221 2.735l-.155-1.994Zm.17 1.993h.008l-.17-1.993c-.008 0-.015 0-.023.002l.185 1.991Zm.008 0 6.042-.518-.17-1.993-6.042.518.17 1.992Zm6.042-.518a4.774 4.774 0 0 0 4.35-5.164l-1.993.171c.13 1.527-1.001 2.87-2.527 3l.17 1.993Zm4.35-5.164c-.113-1.32-.864-2.42-1.411-3.251l-1.67 1.1c.608.924 1.026 1.597 1.088 2.322l1.993-.17Zm-1.411-3.251c-.183-.278-.35-.531-.5-.784l-1.72 1.021c.178.3.371.592.55.863l1.67-1.1Zm-.5-.784a2.628 2.628 0 0 1-.359-1.122l-1.993.17c.062.72.285 1.389.632 1.973l1.72-1.021Zm-.359-1.122a2.642 2.642 0 0 1 2.408-2.858l-.171-1.993a4.642 4.642 0 0 0-4.23 5.022l1.993-.171Zm2.408-2.858a2.642 2.642 0 0 1 2.858 2.407l1.992-.17a4.642 4.642 0 0 0-5.021-4.23l.17 1.993Zm2.858 2.407c.035.412-.026.808-.163 1.167l1.868.714a4.627 4.627 0 0 0 .287-2.051l-1.992.17Zm-.163 1.167a20.17 20.17 0 0 1-.36.857l1.834.8c.13-.297.27-.618.394-.943l-1.868-.714Zm-.36.857c-.397.912-.95 2.124-.837 3.444l1.993-.17c-.062-.725.235-1.46.678-2.473l-1.833-.8Zm-.837 3.444a4.774 4.774 0 0 0 5.164 4.35l-.17-1.993a2.774 2.774 0 0 1-3.001-2.528l-1.993.171Zm5.164 4.35 6.042-.517-.17-1.993-6.043.517.171 1.993Zm6.042-.517.008-.001-.156-1.994-.023.002.17 1.993ZM34.177 37.304l-.079-.997h-.013l.092.997Zm-7.689 11.528-.4.916.4-.916Zm-.9-.377-.357.934.357-.934Zm.56 6.538.51.86-.51-.86Zm.823-.525-.55-.835.55.835Zm30.466-19.155-.079-.997h-.013l.092.997Zm-.013 0 .085.997-.085-.996Zm-6.042.518-.085-.996.085.996ZM49.193 42.7l.835-.55-.835.55Zm.525.823.86-.51-.86.51Zm-6.539.56.935.357-.934-.357Zm.377-.9.917.4-.916-.4Zm-3.324-6.398-.085-.996.085.996Zm-6.042.517-.085-.996.085.996Zm-.826 2.078a1 1 0 0 1 .905-1.08l-.184-1.992a3 3 0 0 0-2.713 3.243l1.992-.17Zm.517 6.042-.517-6.042-1.992.17.517 6.043 1.992-.17Zm-4.349 5.164a4.774 4.774 0 0 0 4.35-5.164l-1.993.17c.13 1.527-1.001 2.87-2.528 3.001l.171 1.993Zm-3.444-.838c.911.398 2.124.951 3.444.838l-.17-1.993c-.725.062-1.46-.235-2.473-.678l-.8 1.833Zm-.857-.36c.274.106.552.227.857.36l.8-1.833c-.296-.13-.618-.27-.943-.394l-.714 1.868Zm-1.167-.162c.412-.035.808.026 1.167.163l.714-1.868a4.628 4.628 0 0 0-2.051-.288l.17 1.993Zm-2.407 2.858a2.642 2.642 0 0 1 2.407-2.858l-.17-1.992a4.642 4.642 0 0 0-4.23 5.02l1.993-.17Zm2.858 2.408a2.642 2.642 0 0 1-2.858-2.408l-1.993.17a4.642 4.642 0 0 0 5.021 4.23l-.17-1.992Zm1.122-.359c-.33.196-.71.323-1.122.359l.17 1.992a4.628 4.628 0 0 0 1.973-.631l-1.021-1.72Zm.784-.5c-.278.183-.532.35-.784.5l1.021 1.72c.3-.178.592-.371.863-.55l-1.1-1.67Zm3.251-1.41c-1.32.112-2.42.863-3.251 1.41l1.1 1.67c.923-.608 1.597-1.026 2.322-1.088l-.17-1.993Zm5.164 4.349a4.774 4.774 0 0 0-5.164-4.35l.17 1.993c1.527-.13 2.87 1.001 3.001 2.527l1.993-.17Zm.517 6.042-.517-6.042-1.993.17.517 6.042 1.993-.17Zm1.081.91a1 1 0 0 1-1.081-.91l-1.993.17a3 3 0 0 0 3.245 2.734l-.17-1.993Zm23.234-1.988-23.233 1.989.17 1.993 23.234-1.99-.171-1.992Zm.911-1.081a1 1 0 0 1-.911 1.081l.17 1.993a3 3 0 0 0 2.734-3.245l-1.993.17ZM58.59 37.22l1.989 23.234 1.993-.171-1.989-23.233-1.993.17Zm-1.074-.911a1 1 0 0 1 1.074.911l1.993-.17a3 3 0 0 0-3.225-2.735l.158 1.993Zm-.17-1.993h-.008l.17 1.993.02-.002-.183-1.991Zm-.008 0-6.041.518.17 1.992 6.042-.517-.17-1.993Zm-6.041.518a4.774 4.774 0 0 0-4.35 5.163l1.993-.17c-.13-1.527 1-2.87 2.527-3l-.17-1.993Zm-4.35 5.163c.113 1.32.864 2.421 1.411 3.252l1.67-1.1c-.608-.924-1.026-1.597-1.088-2.322l-1.993.17Zm1.411 3.252c.183.278.35.531.5.784l1.72-1.021c-.178-.3-.372-.593-.55-.863l-1.67 1.1Zm.5.784c.196.33.323.71.359 1.122l1.992-.17a4.626 4.626 0 0 0-.632-1.973l-1.72 1.02Zm.359 1.122a2.642 2.642 0 0 1-2.408 2.858l.17 1.993a4.642 4.642 0 0 0 4.23-5.022l-1.992.17Zm-2.408 2.858a2.642 2.642 0 0 1-2.858-2.408l-1.993.171a4.642 4.642 0 0 0 5.022 4.23l-.17-1.993Zm-2.858-2.408a2.627 2.627 0 0 1 .163-1.166l-1.869-.714a4.628 4.628 0 0 0-.287 2.051l1.993-.17Zm.163-1.166c.104-.274.226-.553.359-.858l-1.833-.8c-.13.297-.27.619-.395.944l1.869.714Zm.359-.858c.398-.91.95-2.123.838-3.443l-1.993.17c.062.725-.236 1.46-.678 2.473l1.833.8Zm.838-3.443a4.774 4.774 0 0 0-5.164-4.35l.17 1.993c1.527-.131 2.87 1 3 2.527l1.994-.17Zm-5.164-4.35-6.042.517.17 1.993 6.042-.517-.17-1.993Zm-6.042.517a.16.16 0 0 1-.007 0l.157 1.995.02-.002-.17-1.993Z" fill="#202020"/></svg>