<svg width="70" height="70" fill="none" xmlns="http://www.w3.org/2000/svg"><path d="M61 54 38.945 23l-2.687 3.6H32.35l-6.35 9M33 48l-7.719-12.077h-4.008L18.517 32 8 54M34.65 11v15M34.65 15V7l9 4-9 4Z" stroke="#202020" stroke-width="2" stroke-linecap="round" stroke-linejoin="round"/><path d="m45 33-6.654 8-5.52-5.17L29 40.468" stroke="#202020" stroke-width="2" stroke-linecap="round" stroke-linejoin="round"/><path d="M33 48c2 3.5 5.5 6.5.5 8.5-5.988 2.395-8.667 6-9.5 7M33.5 48.5c4.563.313 12.5.5 14.189 6.063 1.42 4.68 5.378 7.656 8.311 8.437" stroke="#202020" stroke-width="2" stroke-linecap="round"/><path d="M36 54H8M61 54H48" stroke="#202020" stroke-width="2" stroke-linecap="round" stroke-linejoin="round"/></svg>