<svg width="70" height="70" fill="none" xmlns="http://www.w3.org/2000/svg"><path d="M35 59c13.255 0 24-10.745 24-24S48.255 11 35 11 11 21.745 11 35s10.745 24 24 24Z" stroke="#202020" stroke-width="2" stroke-linecap="round" stroke-linejoin="round"/><path d="M17 20c1.167 2 4.5 5.4 8.5 3 5-3 4.5-8 9.5-5.5s5.5 4.5 9.5 2.5c1.927-.963 1.833-4.167 2-5M57.024 43.678c-1.834.167-5.3-.3-4.5-3.5 1-4-2.5-7.5-5-8.5s-4 4-4.5 6.5-2.5 11-5 11.5-3.5-1.5-4.5-5.5-6-7-6.5-11.5 7-2.5 11-4c1-.333 3.4-1.3 5-2.5 2-1.5 5-5 8-2 2.4 2.4 5 2.333 6 2M13 27c2.587.813 6.593 2.581 7.5 5 1.5 4-4.678 7.683-3.267 10.122 1.128 1.951-.47 4.065-1.411 4.878" stroke="#202020" stroke-width="2" stroke-linecap="round"/></svg>