<svg width="70" height="70" fill="none" xmlns="http://www.w3.org/2000/svg"><path d="m52.967 55.473-31.863 2.958M49.989 12.565l.184 1.991M50.45 17.544l.185 1.99M33.78 11.056l-1.992.185M38.309 59.847l-1.992.184" stroke="#202020" stroke-width="2" stroke-linecap="round" stroke-linejoin="round"/><rect x="16.483" y="8.645" width="32" height="56" rx="2" transform="rotate(-5.303 16.483 8.645)" stroke="#202020" stroke-width="2"/><path d="M32.008 38.468c.761.845 2.19 1.176 3.79 1.028 1.6-.149 2.944-.737 3.537-1.709" stroke="#202020" stroke-width="2" stroke-linecap="round"/><path d="m37.9 32.4.064.685M36.307 44.968a9.618 9.618 0 0 0 8.688-10.466 9.618 9.618 0 0 0-10.466-8.688A9.618 9.618 0 0 0 25.84 36.28a9.618 9.618 0 0 0 10.466 8.688ZM32.427 32.909l.064.684" stroke="#202020" stroke-width="2" stroke-linecap="round" stroke-linejoin="round"/><path d="M62.512 2.75c0 3.012-.59 8.282 6.488 8.282" stroke="#202020" stroke-width="2" stroke-linecap="round"/><path d="M62.488 2.75v.19c0 2.943.59 8.092-6.488 8.092" stroke="#202020" stroke-width="2" stroke-linecap="round" stroke-linejoin="round"/><path d="M62.488 19.468c0-3.442.59-8.436-6.488-8.436" stroke="#202020" stroke-width="2" stroke-linecap="round"/><path d="M62.512 19.468c0-3.442-.59-8.436 6.488-8.436M8.514 32c0 3.818-.68 10.5 7.486 10.5" stroke="#202020" stroke-width="2" stroke-linecap="round"/><path d="M8.486 32v.242c0 3.73.68 10.258-7.486 10.258" stroke="#202020" stroke-width="2" stroke-linecap="round" stroke-linejoin="round"/><path d="M8.486 54.5c0-4.364.68-12-7.486-12" stroke="#202020" stroke-width="2" stroke-linecap="round"/><path d="M8.514 54.5c0-4.364-.68-12 7.486-12" stroke="#202020" stroke-width="2" stroke-linecap="round"/></svg>