<svg xmlns="http://www.w3.org/2000/svg" width="61" height="66" fill="none"><path d="M9 32a1 1 0 1 0 0-2v2Zm0-2c-3.928 0-7-2.97-7-6.5H0C0 28.254 4.091 32 9 32v-2Zm-7-6.5C2 19.97 5.072 17 9 17v-2c-4.909 0-9 3.746-9 8.5h2Z" fill="#ffffff"/><path d="M51 47a8 8 0 1 0 0-16" stroke="#ffffff" stroke-width="2"/><path d="M9 63a1 1 0 1 0 0-2v2Zm0-2c-3.928 0-7-2.97-7-6.5H0C0 59.254 4.091 63 9 63v-2Zm-7-6.5C2 50.97 5.072 48 9 48v-2c-4.909 0-9 3.746-9 8.5h2Z" fill="#ffffff"/><path d="M9 16h41M9 62h24M51 5v9M9 31h42M9 47h42M51 9V1l9 4-9 4Z" stroke="#ffffff" stroke-width="2" stroke-linecap="round" stroke-linejoin="round"/><circle cx="15" cy="16" r="3" fill="#fff" stroke="#ffffff" stroke-width="2"/><circle cx="51" cy="16" r="3" fill="#fff" stroke="#ffffff" stroke-width="2"/><circle cx="15" cy="47" r="3" fill="#fff" stroke="#ffffff" stroke-width="2"/><circle cx="33" cy="31" r="3" fill="#fff" stroke="#ffffff" stroke-width="2"/><circle cx="33" cy="62" r="3" fill="#fff" stroke="#ffffff" stroke-width="2"/></svg>