<svg xmlns="http://www.w3.org/2000/svg" width="70" height="70" fill="none"><rect x="23" y="30" width="24" height="17" rx="2" stroke="#ffffff" stroke-width="2"/><path d="m36.415 39.493-.5-.866a1 1 0 0 0-.5.866h1Zm-2.943 0h1a1 1 0 0 0-.5-.866l-.5.866Zm3.415-2.55c0 .718-.39 1.347-.973 1.684l1.002 1.732a3.942 3.942 0 0 0 1.97-3.416h-2ZM34.943 35c1.074 0 1.944.87 1.944 1.943h2A3.943 3.943 0 0 0 34.943 33v2ZM33 36.943C33 35.87 33.87 35 34.943 35v-2A3.943 3.943 0 0 0 31 36.943h2Zm.972 1.684A1.942 1.942 0 0 1 33 36.943h-2c0 1.461.795 2.735 1.971 3.416l1.001-1.732Zm.5 2.731v-1.865h-2v1.865h2Zm.471.472a.472.472 0 0 1-.471-.471h-2a2.472 2.472 0 0 0 2.471 2.471v-2Zm.472-.471c0 .26-.211.471-.472.471v2a2.472 2.472 0 0 0 2.472-2.471h-2Zm0-1.866v1.865h2v-1.865h-2Z" fill="#ffffff"/><path d="M15 15.898 35 11l20 4.898v21.551C55 55.073 35 59 35 59s-20-3.927-20-21.551V15.898Z" stroke="#ffffff" stroke-width="2" stroke-linejoin="round"/><path d="M60.512 3c0 3.012-.59 8.282 6.488 8.282" stroke="#ffffff" stroke-width="2" stroke-linecap="round"/><path d="M60.488 3v.19c0 2.943.59 8.092-6.488 8.092" stroke="#ffffff" stroke-width="2" stroke-linecap="round" stroke-linejoin="round"/><path d="M60.488 19.718c0-3.442.59-8.436-6.488-8.436" stroke="#ffffff" stroke-width="2" stroke-linecap="round"/><path d="M60.512 19.718c0-3.442-.59-8.436 6.488-8.436M10.514 44c0 3.733-.68 10.267 7.486 10.267" stroke="#ffffff" stroke-width="2" stroke-linecap="round"/><path d="M10.486 44v.236c0 3.648.68 10.03-7.486 10.03" stroke="#ffffff" stroke-width="2" stroke-linecap="round" stroke-linejoin="round"/><path d="M10.486 66c0-4.267.68-11.733-7.486-11.733" stroke="#ffffff" stroke-width="2" stroke-linecap="round"/><path d="M10.514 66c0-4.267-.68-11.733 7.486-11.733" stroke="#ffffff" stroke-width="2" stroke-linecap="round"/><path d="M26 29v-3.75c0-4.556 4.03-8.25 9-8.25s9 3.694 9 8.25V29" stroke="#ffffff" stroke-width="2" stroke-linecap="round" stroke-linejoin="round"/><path d="M40 29v-2.91c0-2.81-2.239-5.09-5-5.09s-5 2.28-5 5.09V29" stroke="#ffffff" stroke-width="2" stroke-linecap="round" stroke-linejoin="round"/></svg>