<svg xmlns="http://www.w3.org/2000/svg" width="70" height="70" fill="none"><path d="M49 53v4a2 2 0 0 1-2 2H18a2 2 0 0 1-2-2V13a2 2 0 0 1 2-2h23a8 8 0 0 1 8 8v16" stroke="#ffffff" stroke-width="2"/><path d="m48.314 18.071-6.42-.652L41.244 11M42 27H22M32 19H22M32 50H22M42 31H22M40 35H22M45 54c5.523 0 10-4.477 10-10s-4.477-10-10-10-10 4.477-10 10 4.477 10 10 10Z" stroke="#ffffff" stroke-width="2" stroke-linecap="round" stroke-linejoin="round"/><path d="m50.151 41.334-6.822 6.144-1.944-4.938" stroke="#ffffff" stroke-width="2" stroke-linecap="round" stroke-linejoin="round"/></svg>