<svg xmlns="http://www.w3.org/2000/svg" width="70" height="70" fill="none"><path d="M31.549 36.872C30.2 32.32 25.989 29 21 29c-6.075 0-11 4.925-11 11s4.925 11 11 11c4.988 0 9.201-3.32 10.549-7.872M53 51c6.075 0 11-4.925 11-11s-4.925-11-11-11-11 4.925-11 11 4.925 11 11 11Z" stroke="#ffffff" stroke-width="2" stroke-linecap="round" stroke-linejoin="round"/><rect x="19" y="37" width="20" height="6" rx="3" stroke="#ffffff" stroke-width="2"/><path d="M45 21h8a2 2 0 0 1 2 2v0a2 2 0 0 1-2 2h-1.333" stroke="#ffffff" stroke-width="2" stroke-linecap="round"/><rect x="24" y="19" width="10" height="4" rx="2" stroke="#ffffff" stroke-width="2"/><path d="m35 37-5.244-13.985M45 21l9 20M45 21l-7.362 16.36M16 26h26M38 51h15M13 51h20M7 51h2" stroke="#ffffff" stroke-width="2" stroke-linecap="round" stroke-linejoin="round"/></svg>