<svg xmlns="http://www.w3.org/2000/svg" width="70" height="70" fill="none"><path d="M31.106 61h7.788C40.609 61 42 59.698 42 58.09V56H28v2.09c0 1.608 1.391 2.91 3.106 2.91ZM35.002 19.25c-6.764 0-12.252 5.48-12.252 12.262 0 2.553.785 4.979 2.226 7.03 1.94 2.76 2.972 5.986 2.972 9.291h14.105c0-3.305 1.032-6.487 2.97-9.291a12.243 12.243 0 0 0 2.227-7.03c0-6.778-5.484-12.262-12.252-12.262h.004ZM35 47.5V42m0 0 2.5-2.5M35 42l-2.5-2.5M14 44.333 17.5 42M56 44.333 52.5 42M58.333 24.5l-4.083 1.167M44.917 9.333l-1.75 4.084M25.083 9.333l1.75 4.084M11.667 24.5l4.083 1.167" stroke="#ffffff" stroke-width="2" stroke-linecap="round" stroke-linejoin="round"/><rect x="43" y="48" width="4" height="16" rx="2" transform="rotate(90 43 48)" stroke="#ffffff" stroke-width="2" stroke-linejoin="round"/><rect x="43" y="52" width="4" height="16" rx="2" transform="rotate(90 43 52)" stroke="#ffffff" stroke-width="2" stroke-linejoin="round"/></svg>