<svg id="Layer_1" data-name="Layer 1" xmlns="http://www.w3.org/2000/svg" viewBox="0 0 1000 175"><defs><style>.cls-1{fill:#fff;fill-rule:evenodd;}</style></defs><g id="Symbols"><path id="uncinc-logo" class="cls-1" d="M129.3,11.82a9.53,9.53,0,0,1,1.06-4.54A12,12,0,0,1,133,3.54a8.91,8.91,0,0,1,3.71-2.4A8.23,8.23,0,0,1,141,.07a12,12,0,0,1,8.21,3.47,11.12,11.12,0,0,1,3.45,8.28V98.35c0,21.1-7.42,39-22.53,54C115.26,167.52,97,175,76.31,175c-20.93,0-38.95-7.48-53.79-22.7C7.42,137.34,0,119.45,0,98.35V11.82A9.53,9.53,0,0,1,1.06,7.28,12,12,0,0,1,3.71,3.54a8.91,8.91,0,0,1,3.71-2.4A8.25,8.25,0,0,1,11.66.07a11.55,11.55,0,0,1,8.21,3.47,12.25,12.25,0,0,1,3.45,8.28V98.35c0,14.42,5.29,27,15.63,37.66a51.29,51.29,0,0,0,37.36,15.76c14.57,0,27-5.35,37.36-15.76A51.1,51.1,0,0,0,129.3,98.35ZM202.69,22.5C217.53,7.54,235.55.07,256.48.07s38.95,7.47,53.79,22.43c15.1,15,22.52,33.12,22.52,54.22v86.53a10.56,10.56,0,0,1-3.45,8,11.21,11.21,0,0,1-8.21,3.74,12.49,12.49,0,0,1-4.24-1.07,7.38,7.38,0,0,1-3.71-2.67,9.47,9.47,0,0,1-2.65-3.74,8.45,8.45,0,0,1-1.06-4.27V76.72a51.66,51.66,0,0,0-15.63-37.93,52.8,52.8,0,0,0-74.72,0C208.79,49.48,203.49,62,203.49,76.72v86.53a10.56,10.56,0,0,1-3.45,8,10.8,10.8,0,0,1-8.21,3.74,12.49,12.49,0,0,1-4.24-1.07,7.38,7.38,0,0,1-3.71-2.67,9.47,9.47,0,0,1-2.65-3.74,8.55,8.55,0,0,1-1.06-4.27V76.72C180.17,55.62,187.59,37.46,202.69,22.5ZM473,8.08A10.72,10.72,0,0,1,474,17.16a10.58,10.58,0,0,1-5.3,7.21A8.52,8.52,0,0,1,465,25.44a13.14,13.14,0,0,1-4.51,0,12.41,12.41,0,0,1-4.5-.8,29.33,29.33,0,0,0-4.77-.8c-13.24-2.41-26.49.26-39.48,8-15.1,8.54-24.9,21.63-29.67,39-4.51,17.09-2.39,33.39,6.36,48.61,8.48,15,21.46,24.84,38.42,29.65,17.22,4.53,33.38,2.4,48.48-6.14,13-7.76,22-18.17,26.76-30.73a36.87,36.87,0,0,0,1.33-4.27c.53-1.6.79-2.93,1.32-4.27a13.54,13.54,0,0,1,5.57-6.94,11,11,0,0,1,8.74-1.07c3.45,1.07,5.83,2.67,7.15,5.34,2.65,4.54,1.6,11.21-2.91,20.83C514,140.54,501.83,154.16,486.73,163c-20.41,12-42.4,15-65.71,8.55-23.32-6.14-41.07-19.76-52.73-40.33-11.92-20.83-14.57-43-8.48-66.5,6.36-23.5,19.61-41.4,40.28-53.15C417,1.67,436.38-1.8,458.38.87,466.06,1.94,470.83,4.34,473,8.08Zm128.24-.8a12,12,0,0,1,2.65-3.74,8.91,8.91,0,0,1,3.71-2.4A8.23,8.23,0,0,1,611.79.07,11.54,11.54,0,0,1,620,3.54a11.12,11.12,0,0,1,3.45,8.28V163.51a13.68,13.68,0,0,1-.8,4.55,19,19,0,0,1-2.65,3.73,21.5,21.5,0,0,1-3.71,2.41,12.33,12.33,0,0,1-4.5.8,11,11,0,0,1-8.21-3.47,11.59,11.59,0,0,1-3.45-8V11.82A9.41,9.41,0,0,1,601.19,7.28ZM725.45.07c20.93,0,38.69,7.47,53.79,22.43s22.52,33.12,22.52,54.22v86.53a10.59,10.59,0,0,1-3.44,8A11.25,11.25,0,0,1,790.1,175a12.44,12.44,0,0,1-4.23-1.07,7.45,7.45,0,0,1-3.72-2.67,9.35,9.35,0,0,1-2.64-3.74,8.46,8.46,0,0,1-1.07-4.27V76.72a51.66,51.66,0,0,0-15.63-37.93C752.22,28.38,740,23.3,725.45,23.3A51,51,0,0,0,688.1,38.79C677.76,49.48,672.46,62,672.46,76.72v86.79a10,10,0,0,1-3.44,7.75,10.81,10.81,0,0,1-8.21,3.74,12.44,12.44,0,0,1-4.24-1.07,7.37,7.37,0,0,1-3.72-2.67,9.45,9.45,0,0,1-2.64-3.74,7.55,7.55,0,0,1-1.06-4V76.72c0-21.1,7.42-39.26,22.52-54.22C686.51,7.54,704.52.07,725.45.07ZM869.54,11.59c20.67-11.74,42.66-14.68,66-8.27,23.32,6.14,41.07,19.76,52.73,40.33,11.92,20.83,14.84,43,8.48,66.5-6.36,23.23-19.88,41.13-40.28,52.88-15.1,8.81-32.85,12.55-53.52,11.48-10.6-.8-16.95-3.47-19.34-7.74-1.59-2.68-1.85-5.61-1.06-9.08a10.25,10.25,0,0,1,5.3-6.95,11.87,11.87,0,0,1,8.74-1.6,32.11,32.11,0,0,1,4.24,1.07c1.33.27,2.92.53,4.51.8,13.24,2.4,26.49-.27,39.48-8,15.1-8.55,24.9-21.64,29.67-39,4.5-17.1,2.38-33.39-6.36-48.61s-21.46-25.11-38.68-29.65c-17-4.54-33.12-2.4-48.22,6.41-13,7.48-22,17.63-26.76,30.45a22.13,22.13,0,0,0-1.33,4.54c-.53,1.33-1.06,2.94-1.59,4.27l-2.38,4a7.11,7.11,0,0,1-2.92,2.67,11,11,0,0,1-8.74,1.07c-3.45-1.07-5.83-2.67-7.16-5.34-2.38-4-1.85-9.35,1.07-16.56Q844.1,26.42,869.54,11.59Z"/></g></svg>