<svg xmlns="http://www.w3.org/2000/svg" width="70" height="70" fill="none"><path d="M43.5 36.865s12.075-6.951 12.075-14.482c0-3.52-2.703-6.372-6.037-6.372S43.5 18.864 43.5 22.383c0-3.52-2.703-6.372-6.037-6.372s-6.037 2.853-6.037 6.372c.549 6.952 12.074 14.482 12.074 14.482ZM23.158 20.401s7.683-4.39 7.683-9.147c0-2.222-1.72-4.024-3.841-4.024-2.122 0-3.842 1.802-3.842 4.024 0-2.222-1.72-4.024-3.842-4.024-2.121 0-3.841 1.802-3.841 4.024.349 4.39 7.683 9.147 7.683 9.147Z" stroke="#ffffff" stroke-width="2" stroke-linecap="round" stroke-linejoin="round"/><path d="m27.254 38.827 13.928 2.623a.46.46 0 0 1 .367.538v0a4.597 4.597 0 0 1-5.372 3.661l-3.424-.648-5.777-1.102" stroke="#ffffff" stroke-width="2" stroke-linecap="round"/><path d="m26.976 43.899 5.777 1.102 6.276 1.188a9.999 9.999 0 0 0 3.34.065l8.274-1.24a1.02 1.02 0 0 0 .526-.247c2.312-2.052 7.154-5.647 10.042-5.364.133.013.26.051.385.1v0c1.306.523 1.58 2.25.499 3.151l-7.746 6.455a7.873 7.873 0 0 1-2.081 1.248l-10.929 4.43a10.24 10.24 0 0 1-3.064.715c-5.201.401-13.41 1.218-17.723 2.243-1.51.358-3.047.72-4.6.72h-4.411" stroke="#ffffff" stroke-width="2" stroke-linecap="round"/><path d="M9.488 43.646a2 2 0 0 1 2 2v15.758a2 2 0 0 1-2 2H8a2 2 0 0 1-2-2V45.646a2 2 0 0 1 2-2h1.488Z" stroke="#ffffff" stroke-width="2" stroke-linejoin="round"/><path d="m11.678 45.828 2.88-.108s2.203-3.892 4.826-4.783c2.623-.892 7.87-2.11 7.87-2.11" stroke="#ffffff" stroke-width="2" stroke-linecap="round" stroke-linejoin="round"/></svg>